<svg xmlns="http://www.w3.org/2000/svg" width="246" height="49" viewBox="0 0 246 49">
  <g id="Group_2133" data-name="Group 2133" transform="translate(-939 -715)">
    <text id="Smart_Order" data-name="Smart Order" transform="translate(995 751)" fill="#2b31ba" font-size="36" font-family="Nunito-Bold, Nunito" font-weight="700"><tspan x="0" y="0">Smart </tspan><tspan y="0" fill="#4d4d4d" font-size="30" font-family="Nunito-Regular, Nunito" font-weight="400">Order</tspan></text>
    <g id="Group_2132" data-name="Group 2132" transform="translate(939 717.344)">
      <path id="Rectangle_1068" data-name="Rectangle 1068" d="M17,0H46a0,0,0,0,1,0,0V29A17,17,0,0,1,29,46H17A17,17,0,0,1,0,29V17A17,17,0,0,1,17,0Z" transform="translate(0 -0.344)" fill="#2b31ba"/>
      <g id="parcel" transform="translate(7.032 7.814)">
        <path id="Path_1644" data-name="Path 1644" d="M20.721,2.512,6.538,9.774.9,7,14.833.12a1.142,1.142,0,0,1,1.016,0Z" transform="translate(0.272 0)" fill="#fff"/>
        <path id="Path_1645" data-name="Path 1645" d="M27.874,6.111l-14.432,7.15L8.037,10.6l-.781-.4,14.2-7.26.781.4Z" transform="translate(2.193 0.888)" fill="#fff"/>
        <path id="Path_1646" data-name="Path 1646" d="M14.479,14.107l-.016,15.045L.641,21.939A1.207,1.207,0,0,1,0,20.876V6.957L5.858,9.843v5.074a1.172,1.172,0,1,0,2.344,0v-3.9l.781.38Z" transform="translate(0 2.102)" fill="#fff"/>
        <path id="Path_1647" data-name="Path 1647" d="M27.338,6.969,12.922,14.087l-.016,15.045,14.448-7.544Z" transform="translate(3.901 2.106)" fill="#fff"/>
      </g>
    </g>
  </g>
</svg>
